<svg width="754" height="179" viewBox="0 0 754 179" fill="none" xmlns="http://www.w3.org/2000/svg">
<g filter="url(#filter0_d_2171_1344)">
<path d="M40.4325 2.36553C40.7312 0.985119 41.9523 0 43.3647 0H67.0529C68.9515 0 70.3726 1.74141 69.992 3.60147L36.2802 168.335C35.9945 169.731 34.7661 170.733 33.3411 170.733H7.71859C5.80619 170.733 4.382 168.968 4.78645 167.099L40.4325 2.36553Z" fill="white"/>
<path d="M40.4325 2.36553C40.7312 0.985119 41.9523 0 43.3647 0H67.0529C68.9515 0 70.3726 1.74141 69.992 3.60147L36.2802 168.335C35.9945 169.731 34.7661 170.733 33.3411 170.733H7.71859C5.80619 170.733 4.382 168.968 4.78645 167.099L40.4325 2.36553Z" fill="white"/>
<path d="M41.4475 3.43455C41.1824 1.62401 42.586 0 44.4158 0H130.89C132.797 0 134.221 1.75735 133.824 3.6235L129.657 23.2335C129.363 24.6191 128.14 25.61 126.723 25.61H42.8513C40.8782 25.61 39.4424 23.738 39.9538 21.8323L42.5023 12.3367C42.6083 11.9417 42.6325 11.5292 42.5732 11.1245L41.4475 3.43455Z" fill="white"/>
<path d="M25.6957 75.9961C25.4307 74.1855 26.8343 72.5615 28.6641 72.5615H115.138C117.046 72.5615 118.469 74.3189 118.072 76.185L113.906 95.795C113.611 97.1806 112.388 98.1715 110.971 98.1715H27.0996C25.1265 98.1715 23.6906 96.2995 24.2021 94.3939L26.7506 84.8982C26.8566 84.5032 26.8807 84.0907 26.8215 83.686L25.6957 75.9961Z" fill="white"/>
<path d="M10.2307 148.558C9.96561 146.747 11.3692 145.123 13.199 145.123H99.6728C101.581 145.123 103.004 146.881 102.607 148.747L98.4407 168.357C98.1463 169.742 96.9227 170.733 95.5062 170.733H11.6345C9.66138 170.733 8.22556 168.861 8.73701 166.956L11.2855 157.46C11.3915 157.065 11.4157 156.652 11.3564 156.248L10.2307 148.558Z" fill="white"/>
</g>
<g filter="url(#filter1_d_2171_1344)">
<path d="M139.433 2.36553C139.731 0.985119 140.952 0 142.365 0H166.053C167.951 0 169.373 1.74141 168.992 3.60147L135.28 168.335C134.994 169.731 133.766 170.733 132.341 170.733H106.719C104.806 170.733 103.382 168.968 103.786 167.099L139.433 2.36553Z" fill="white"/>
<path d="M139.433 2.36553C139.731 0.985119 140.952 0 142.365 0H166.053C167.951 0 169.373 1.74141 168.992 3.60147L135.28 168.335C134.994 169.731 133.766 170.733 132.341 170.733H106.719C104.806 170.733 103.382 168.968 103.786 167.099L139.433 2.36553Z" fill="white"/>
<path d="M222.877 2.29076C223.204 0.946324 224.408 0 225.792 0H246.954C248.9 0 250.331 1.8237 249.868 3.71362L230.431 83.0802C230.102 84.4225 228.899 85.3666 227.517 85.3666H206.482C204.538 85.3666 203.107 83.5462 203.567 81.6574L222.877 2.29076Z" fill="white"/>
<path d="M222.877 2.29076C223.204 0.946324 224.408 0 225.792 0H246.954C248.9 0 250.331 1.8237 249.868 3.71362L230.431 83.0802C230.102 84.4225 228.899 85.3666 227.517 85.3666H206.482C204.538 85.3666 203.107 83.5462 203.567 81.6574L222.877 2.29076Z" fill="white"/>
<path d="M142.025 3.50548C141.712 1.67319 143.124 0 144.982 0H246.942C248.892 0 250.323 1.83026 249.854 3.72239L244.989 23.3324C244.657 24.6704 243.456 25.61 242.077 25.61H143.169C141.144 25.61 139.701 23.6451 140.307 21.7129L143.216 12.4278C143.358 11.9744 143.391 11.4936 143.311 11.0252L142.025 3.50548Z" fill="white"/>
<path d="M127.066 76.0544C126.761 74.2259 128.172 72.5615 130.025 72.5615H229.22C231.162 72.5615 232.592 74.3787 232.136 76.2664L227.396 95.8764C227.07 97.223 225.865 98.1715 224.48 98.1715H128.256C126.24 98.1715 124.798 96.2232 125.387 94.2954L128.233 84.9734C128.369 84.5301 128.4 84.0615 128.323 83.6044L127.066 76.0544Z" fill="white"/>
<path d="M159.912 80.7611C158.793 78.7614 160.239 76.2964 162.53 76.2964H188.285C189.381 76.2964 190.39 76.8943 190.916 77.856L239.469 166.56C240.563 168.559 239.117 171 236.837 171H212.156C211.069 171 210.068 170.413 209.538 169.465L159.912 80.7611Z" fill="white"/>
</g>
<g filter="url(#filter2_d_2171_1344)">
<rect x="268" y="75" width="80" height="27" rx="3" fill="white"/>
<path d="M323.755 77.2921C324.082 75.947 325.286 75 326.67 75H351.178C353.124 75 354.554 76.8227 354.093 78.7123L332.095 168.712C331.767 170.055 330.563 171 329.181 171H304.816C302.872 171 301.442 169.181 301.9 167.292L323.755 77.2921Z" fill="white"/>
<path d="M323.755 77.2921C324.082 75.947 325.286 75 326.67 75H351.178C353.124 75 354.554 76.8227 354.093 78.7123L332.095 168.712C331.767 170.055 330.563 171 329.181 171H304.816C302.872 171 301.442 169.181 301.9 167.292L323.755 77.2921Z" fill="white"/>
<path d="M266.755 77.2921C267.082 75.947 268.286 75 269.67 75H294.178C296.124 75 297.554 76.8227 297.093 78.7123L275.095 168.712C274.767 170.055 273.563 171 272.181 171H247.816C245.872 171 244.442 169.181 244.9 167.292L266.755 77.2921Z" fill="white"/>
<path d="M266.755 77.2921C267.082 75.947 268.286 75 269.67 75H294.178C296.124 75 297.554 76.8227 297.093 78.7123L275.095 168.712C274.767 170.055 273.563 171 272.181 171H247.816C245.872 171 244.442 169.181 244.9 167.292L266.755 77.2921Z" fill="white"/>
<path d="M254 147C254 145.343 255.343 144 257 144H328C329.657 144 331 145.343 331 147V168C331 169.657 329.657 171 328 171H257C255.343 171 254 169.657 254 168V147Z" fill="white"/>
</g>
<g filter="url(#filter3_d_2171_1344)">
<rect x="345" y="146" width="73" height="25" rx="3" fill="white"/>
<path d="M359.755 77.2921C360.082 75.947 361.286 75 362.67 75H387.178C389.124 75 390.554 76.8227 390.093 78.7123L368.095 168.712C367.767 170.055 366.563 171 365.181 171H340.816C338.872 171 337.442 169.181 337.9 167.292L359.755 77.2921Z" fill="white"/>
<path d="M359.755 77.2921C360.082 75.947 361.286 75 362.67 75H387.178C389.124 75 390.554 76.8227 390.093 78.7123L368.095 168.712C367.767 170.055 366.563 171 365.181 171H340.816C338.872 171 337.442 169.181 337.9 167.292L359.755 77.2921Z" fill="white"/>
<path d="M410.755 77.2921C411.082 75.947 412.286 75 413.67 75H438.178C440.124 75 441.554 76.8227 441.093 78.7123L419.095 168.712C418.767 170.055 417.563 171 416.181 171H391.816C389.872 171 388.442 169.181 388.9 167.292L410.755 77.2921Z" fill="white"/>
<path d="M410.755 77.2921C411.082 75.947 412.286 75 413.67 75H438.178C440.124 75 441.554 76.8227 441.093 78.7123L419.095 168.712C418.767 170.055 417.563 171 416.181 171H391.816C389.872 171 388.442 169.181 388.9 167.292L410.755 77.2921Z" fill="white"/>
</g>
<g filter="url(#filter4_d_2171_1344)">
<path d="M481.755 77.2921C482.082 75.947 483.286 75 484.67 75H509.178C511.124 75 512.554 76.8227 512.093 78.7123L490.095 168.712C489.767 170.055 488.563 171 487.181 171H462.816C460.872 171 459.442 169.181 459.9 167.292L481.755 77.2921Z" fill="white"/>
<path d="M481.755 77.2921C482.082 75.947 483.286 75 484.67 75H509.178C511.124 75 512.554 76.8227 512.093 78.7123L490.095 168.712C489.767 170.055 488.563 171 487.181 171H462.816C460.872 171 459.442 169.181 459.9 167.292L481.755 77.2921Z" fill="white"/>
<path d="M447.113 77.3397C447.422 75.9716 448.637 75 450.04 75H542.242C544.167 75 545.594 76.7877 545.167 78.665L540.848 97.665C540.537 99.0308 539.323 100 537.923 100H445.752C443.829 100 442.403 98.2157 442.826 96.3397L447.113 77.3397Z" fill="white"/>
</g>
<g filter="url(#filter5_d_2171_1344)">
<path d="M588.755 77.2921C589.082 75.947 590.286 75 591.67 75H616.178C618.124 75 619.554 76.8227 619.093 78.7123L597.095 168.712C596.767 170.055 595.563 171 594.181 171H569.816C567.872 171 566.442 169.181 566.9 167.292L588.755 77.2921Z" fill="white"/>
<path d="M588.755 77.2921C589.082 75.947 590.286 75 591.67 75H616.178C618.124 75 619.554 76.8227 619.093 78.7123L597.095 168.712C596.767 170.055 595.563 171 594.181 171H569.816C567.872 171 566.442 169.181 566.9 167.292L588.755 77.2921Z" fill="white"/>
<path d="M642.755 77.2921C643.082 75.947 644.286 75 645.67 75H670.178C672.124 75 673.554 76.8227 673.093 78.7123L651.095 168.712C650.767 170.055 649.563 171 648.181 171H623.816C621.872 171 620.442 169.181 620.9 167.292L642.755 77.2921Z" fill="white"/>
<path d="M642.755 77.2921C643.082 75.947 644.286 75 645.67 75H670.178C672.124 75 673.554 76.8227 673.093 78.7123L651.095 168.712C650.767 170.055 649.563 171 648.181 171H623.816C621.872 171 620.442 169.181 620.9 167.292L642.755 77.2921Z" fill="white"/>
<path d="M590.319 78.9503C589.67 77.0074 591.116 75 593.165 75H616.261C617.589 75 618.759 75.8731 619.137 77.1462L645.856 167.146C646.427 169.069 644.986 171 642.98 171H623.221C621.931 171 620.785 170.174 620.376 168.95L590.319 78.9503Z" fill="white"/>
</g>
<g filter="url(#filter6_d_2171_1344)">
<path d="M551.755 77.2921C552.082 75.947 553.286 75 554.67 75H579.178C581.124 75 582.554 76.8227 582.093 78.7123L560.095 168.712C559.767 170.055 558.563 171 557.181 171H532.816C530.872 171 529.442 169.181 529.9 167.292L551.755 77.2921Z" fill="white"/>
<path d="M551.755 77.2921C552.082 75.947 553.286 75 554.67 75H579.178C581.124 75 582.554 76.8227 582.093 78.7123L560.095 168.712C559.767 170.055 558.563 171 557.181 171H532.816C530.872 171 529.442 169.181 529.9 167.292L551.755 77.2921Z" fill="white"/>
</g>
<g filter="url(#filter7_d_2171_1344)">
<path d="M665 153C665 151.343 666.343 150 668 150H727.298C729.243 150 730.673 151.821 730.213 153.71L726.558 168.71C726.23 170.054 725.027 171 723.643 171H668C666.343 171 665 169.657 665 168V153Z" fill="white"/>
<path d="M684 78C684 76.3431 685.343 75 687 75H746.298C748.243 75 749.673 76.8212 749.213 78.7103L745.558 93.7103C745.23 95.0542 744.027 96 742.643 96H687C685.343 96 684 94.6569 684 93V78Z" fill="white"/>
<path d="M675 114C675 112.343 676.343 111 678 111H737.298C739.243 111 740.673 112.821 740.213 114.71L736.558 129.71C736.23 131.054 735.027 132 733.643 132H678C676.343 132 675 130.657 675 129V114Z" fill="white"/>
<path d="M679.755 77.2921C680.082 75.947 681.286 75 682.67 75H707.178C709.124 75 710.554 76.8227 710.093 78.7123L688.095 168.712C687.767 170.055 686.563 171 685.181 171H660.816C658.872 171 657.442 169.181 657.9 167.292L679.755 77.2921Z" fill="white"/>
<path d="M679.755 77.2921C680.082 75.947 681.286 75 682.67 75H707.178C709.124 75 710.554 76.8227 710.093 78.7123L688.095 168.712C687.767 170.055 686.563 171 685.181 171H660.816C658.872 171 657.442 169.181 657.9 167.292L679.755 77.2921Z" fill="white"/>
</g>
<defs>
<filter id="filter0_d_2171_1344" x="0.717529" y="0" width="137.173" height="178.733" filterUnits="userSpaceOnUse" color-interpolation-filters="sRGB">
<feFlood flood-opacity="0" result="BackgroundImageFix"/>
<feColorMatrix in="SourceAlpha" type="matrix" values="0 0 0 0 0 0 0 0 0 0 0 0 0 0 0 0 0 0 127 0" result="hardAlpha"/>
<feOffset dy="4"/>
<feGaussianBlur stdDeviation="2"/>
<feComposite in2="hardAlpha" operator="out"/>
<feColorMatrix type="matrix" values="0 0 0 0 0 0 0 0 0 0 0 0 0 0 0 0 0 0 0.25 0"/>
<feBlend mode="normal" in2="BackgroundImageFix" result="effect1_dropShadow_2171_1344"/>
<feBlend mode="normal" in="SourceGraphic" in2="effect1_dropShadow_2171_1344" result="shape"/>
</filter>
<filter id="filter1_d_2171_1344" x="99.7175" y="0" width="154.238" height="179" filterUnits="userSpaceOnUse" color-interpolation-filters="sRGB">
<feFlood flood-opacity="0" result="BackgroundImageFix"/>
<feColorMatrix in="SourceAlpha" type="matrix" values="0 0 0 0 0 0 0 0 0 0 0 0 0 0 0 0 0 0 127 0" result="hardAlpha"/>
<feOffset dy="4"/>
<feGaussianBlur stdDeviation="2"/>
<feComposite in2="hardAlpha" operator="out"/>
<feColorMatrix type="matrix" values="0 0 0 0 0 0 0 0 0 0 0 0 0 0 0 0 0 0 0.25 0"/>
<feBlend mode="normal" in2="BackgroundImageFix" result="effect1_dropShadow_2171_1344"/>
<feBlend mode="normal" in="SourceGraphic" in2="effect1_dropShadow_2171_1344" result="shape"/>
</filter>
<filter id="filter2_d_2171_1344" x="240.814" y="75" width="117.366" height="104" filterUnits="userSpaceOnUse" color-interpolation-filters="sRGB">
<feFlood flood-opacity="0" result="BackgroundImageFix"/>
<feColorMatrix in="SourceAlpha" type="matrix" values="0 0 0 0 0 0 0 0 0 0 0 0 0 0 0 0 0 0 127 0" result="hardAlpha"/>
<feOffset dy="4"/>
<feGaussianBlur stdDeviation="2"/>
<feComposite in2="hardAlpha" operator="out"/>
<feColorMatrix type="matrix" values="0 0 0 0 0 0 0 0 0 0 0 0 0 0 0 0 0 0 0.25 0"/>
<feBlend mode="normal" in2="BackgroundImageFix" result="effect1_dropShadow_2171_1344"/>
<feBlend mode="normal" in="SourceGraphic" in2="effect1_dropShadow_2171_1344" result="shape"/>
</filter>
<filter id="filter3_d_2171_1344" x="333.814" y="75" width="111.366" height="104" filterUnits="userSpaceOnUse" color-interpolation-filters="sRGB">
<feFlood flood-opacity="0" result="BackgroundImageFix"/>
<feColorMatrix in="SourceAlpha" type="matrix" values="0 0 0 0 0 0 0 0 0 0 0 0 0 0 0 0 0 0 127 0" result="hardAlpha"/>
<feOffset dy="4"/>
<feGaussianBlur stdDeviation="2"/>
<feComposite in2="hardAlpha" operator="out"/>
<feColorMatrix type="matrix" values="0 0 0 0 0 0 0 0 0 0 0 0 0 0 0 0 0 0 0.25 0"/>
<feBlend mode="normal" in2="BackgroundImageFix" result="effect1_dropShadow_2171_1344"/>
<feBlend mode="normal" in="SourceGraphic" in2="effect1_dropShadow_2171_1344" result="shape"/>
</filter>
<filter id="filter4_d_2171_1344" x="438.751" y="75" width="110.491" height="104" filterUnits="userSpaceOnUse" color-interpolation-filters="sRGB">
<feFlood flood-opacity="0" result="BackgroundImageFix"/>
<feColorMatrix in="SourceAlpha" type="matrix" values="0 0 0 0 0 0 0 0 0 0 0 0 0 0 0 0 0 0 127 0" result="hardAlpha"/>
<feOffset dy="4"/>
<feGaussianBlur stdDeviation="2"/>
<feComposite in2="hardAlpha" operator="out"/>
<feColorMatrix type="matrix" values="0 0 0 0 0 0 0 0 0 0 0 0 0 0 0 0 0 0 0.25 0"/>
<feBlend mode="normal" in2="BackgroundImageFix" result="effect1_dropShadow_2171_1344"/>
<feBlend mode="normal" in="SourceGraphic" in2="effect1_dropShadow_2171_1344" result="shape"/>
</filter>
<filter id="filter5_d_2171_1344" x="562.814" y="75" width="114.366" height="104" filterUnits="userSpaceOnUse" color-interpolation-filters="sRGB">
<feFlood flood-opacity="0" result="BackgroundImageFix"/>
<feColorMatrix in="SourceAlpha" type="matrix" values="0 0 0 0 0 0 0 0 0 0 0 0 0 0 0 0 0 0 127 0" result="hardAlpha"/>
<feOffset dy="4"/>
<feGaussianBlur stdDeviation="2"/>
<feComposite in2="hardAlpha" operator="out"/>
<feColorMatrix type="matrix" values="0 0 0 0 0 0 0 0 0 0 0 0 0 0 0 0 0 0 0.25 0"/>
<feBlend mode="normal" in2="BackgroundImageFix" result="effect1_dropShadow_2171_1344"/>
<feBlend mode="normal" in="SourceGraphic" in2="effect1_dropShadow_2171_1344" result="shape"/>
</filter>
<filter id="filter6_d_2171_1344" x="525.814" y="75" width="60.3657" height="104" filterUnits="userSpaceOnUse" color-interpolation-filters="sRGB">
<feFlood flood-opacity="0" result="BackgroundImageFix"/>
<feColorMatrix in="SourceAlpha" type="matrix" values="0 0 0 0 0 0 0 0 0 0 0 0 0 0 0 0 0 0 127 0" result="hardAlpha"/>
<feOffset dy="4"/>
<feGaussianBlur stdDeviation="2"/>
<feComposite in2="hardAlpha" operator="out"/>
<feColorMatrix type="matrix" values="0 0 0 0 0 0 0 0 0 0 0 0 0 0 0 0 0 0 0.25 0"/>
<feBlend mode="normal" in2="BackgroundImageFix" result="effect1_dropShadow_2171_1344"/>
<feBlend mode="normal" in="SourceGraphic" in2="effect1_dropShadow_2171_1344" result="shape"/>
</filter>
<filter id="filter7_d_2171_1344" x="653.814" y="75" width="99.4856" height="104" filterUnits="userSpaceOnUse" color-interpolation-filters="sRGB">
<feFlood flood-opacity="0" result="BackgroundImageFix"/>
<feColorMatrix in="SourceAlpha" type="matrix" values="0 0 0 0 0 0 0 0 0 0 0 0 0 0 0 0 0 0 127 0" result="hardAlpha"/>
<feOffset dy="4"/>
<feGaussianBlur stdDeviation="2"/>
<feComposite in2="hardAlpha" operator="out"/>
<feColorMatrix type="matrix" values="0 0 0 0 0 0 0 0 0 0 0 0 0 0 0 0 0 0 0.25 0"/>
<feBlend mode="normal" in2="BackgroundImageFix" result="effect1_dropShadow_2171_1344"/>
<feBlend mode="normal" in="SourceGraphic" in2="effect1_dropShadow_2171_1344" result="shape"/>
</filter>
</defs>
</svg>
